<?xml version="1.0" encoding="utf-8"?>
<!-- Generator: Adobe Illustrator 19.2.1, SVG Export Plug-In . SVG Version: 6.00 Build 0)  -->
<svg version="1.1" xmlns="http://www.w3.org/2000/svg" xmlns:xlink="http://www.w3.org/1999/xlink" x="0px" y="0px"
	 viewBox="0 0 170.1 170.1" style="enable-background:new 0 0 170.1 170.1;" xml:space="preserve">
<style type="text/css">
	.st0{fill:#FAA431;}
	.st1{fill:#301F1D;}
	.st2{fill:#FFFFFF;}
</style>
<g id="Layer_1">
</g>
<g id="Layer_2">
	<g>
		<circle class="st0" cx="85.6" cy="85.4" r="82.2"/>
		<circle class="st1" cx="85.6" cy="85.4" r="77.6"/>
		<circle class="st2" cx="85.6" cy="85.4" r="76.1"/>
		<g>
			<path class="st1" d="M97.7,39v14.2h4.7L102.3,69h-9.9c0,0-1.9-4.2-7.4-4.1c-5.5-0.1-7.4,4.1-7.4,4.1h-9.9l-0.1-15.8h4.7V39H32.6
				v14.2h4.6l4.3,79.6h5.3v8.2H63v-8.2h5.3l-0.2-21.9c0,0,6.1,0,10,0c0.5,4.6,7,4.5,7,4.5s6.4,0.1,7-4.5c3.9,0,10,0,10,0l-0.2,21.9
				h5.3v8.2h16.1v-8.2h5.3l4.3-79.6h4.6V39H97.7z"/>
			<rect x="34.1" y="40.3" class="st2" width="36.8" height="11.5"/>
			<rect x="99.1" y="40.3" class="st2" width="36.8" height="11.5"/>
			<rect x="48" y="133.1" class="st2" width="13.9" height="6.8"/>
			<rect x="108.2" y="133.1" class="st2" width="13.9" height="6.8"/>
			<polygon class="st2" points="38.8,53.3 66.3,53.3 66.9,131.6 42.8,131.6 			"/>
			<polygon class="st2" points="131.6,53.3 104.1,53.3 103.5,131.6 127.5,131.6 			"/>
			<path class="st2" d="M91.2,69.8c0,0-1-3.5-6.1-3.7c-5.1,0.2-6.1,3.7-6.1,3.7c-1.2,2-0.6,36.8-0.1,40.1c0.5,3.4,3.5,4.1,6.2,4.1
				c2.7,0,5.7-0.7,6.2-4.1S92.3,71.8,91.2,69.8z"/>
			<path class="st2" d="M67.5,70.7h10c0,0-1,26.1,0,38.8c-4.9,0-9.5,0-9.5,0L67.5,70.7z"/>
			<path class="st2" d="M102.7,70.7h-10c0,0,1,26.1,0,38.8c4.9,0,9.5,0,9.5,0L102.7,70.7z"/>
		</g>
	</g>
</g>
</svg>
