<?xml version="1.0" encoding="utf-8"?>
<!-- Generator: Adobe Illustrator 19.2.1, SVG Export Plug-In . SVG Version: 6.00 Build 0)  -->
<svg version="1.1" id="Layer_1" xmlns="http://www.w3.org/2000/svg" xmlns:xlink="http://www.w3.org/1999/xlink" x="0px" y="0px"
	 viewBox="0 0 170.1 170.1" style="enable-background:new 0 0 170.1 170.1;" xml:space="preserve">
<style type="text/css">
	.st0{fill:#FAA431;}
	.st1{fill:#301F1D;}
	.st2{fill:#FFFFFF;}
</style>
<g>
	<circle class="st0" cx="85.6" cy="85.4" r="82.2"/>
	<circle class="st1" cx="85.6" cy="85.4" r="77.6"/>
	<circle class="st2" cx="85.6" cy="85.4" r="76.1"/>
	<path class="st1" d="M72.5,108.8C73.1,86.5,88.1,65.2,94,59.6c0.6,1.4,4.8,9.2,4.1,20.3c5.3-1.8,10.9-11.7,5.8-20.3
		c9.3,2.6,8.7,7.4,14.6,20.3c7.8-12.3-2.4-27.5-9-30.4c7.8-1.8,17.3,5.3,20.9,7.6c0-17-16.1-19.9-26.6-20.5
		c-4.5-20.5-16.3-25.3-28-17.6c7.4,1.2,13.9,5.9,13.9,12.3c-11.4-10-28.7-2.9-28.7,3.5c6.6-1.2,16.7,0.6,22.7,8.4
		c-12-1.5-19.7,5.6-19.7,12.1c7.1-4.2,13.7-5.2,22.2-0.3c-24.5,17-32.7,62-32.7,62c-6.9,2.6-14.6,8.9-17,20.3c0,0,59.8-0.6,97.4,0
		C124.5,105.1,80.9,105.9,72.5,108.8z M65.9,53.2c2.1-6.2,8.8-10,20.1-8.7c-3.1-7.6-14.1-13-22.9-11.4c3.8-4.8,16-9,27.7-0.4
		c2.1-6.6-4.8-13.6-11.8-14.2c12-5.7,19.5,1.6,24.2,19.3c6,0.3,25,2.2,26.1,17.2c-4.7-3.8-15-9.6-22.5-6.2
		c5.8,2.5,17.5,14.7,11.8,28.2c-4.3-13.3-7.7-17.9-16.8-19.1c5.2,6.1,2.2,16.4-2.3,20.2c0.7-9.7-3.1-18.9-5.2-20.1
		c-0.1,0-0.2,0.1-0.2,0.2c0-0.1,0.1-0.1,0.1-0.2c-0.9-3-5.1-3.2-5.8-3.3c0,0,0,0,0,0C81.7,48.9,72.4,48.6,65.9,53.2z M87.6,55.4
		c1.6,0.5,5.2,1.7,5.8,3.4c-0.5,0.4-1,0.9-1.6,1.4c-1.2-2.7-5.2-3.2-6.3-3.2C86.3,56.4,86.9,55.9,87.6,55.4z M84.7,57.6
		c1.8,0.6,5.3,1.8,6.2,3.4c-0.7,0.8-1.5,1.7-2.3,2.7c-1.1-3.4-6.2-3.6-6.6-3.6C82.9,59.3,83.8,58.4,84.7,57.6z M81.4,60.8
		c2,0.6,6,2,6.5,3.9c-0.5,0.7-1,1.4-1.6,2.1c-1.5-3.3-6.2-3.3-7.4-3.3C79.7,62.6,80.5,61.7,81.4,60.8z M78.1,64.5
		c2.3,0.5,6.5,1.7,7.3,3.6c-0.6,0.9-1.2,1.9-1.8,2.8c-1.9-3.6-7.5-3.1-8.1-3.1C76.4,66.7,77.3,65.5,78.1,64.5z M74.9,68.7
		c2.4,0.4,7,1.5,7.9,3.5c-0.7,1.1-1.3,2.3-2,3.5c-2.3-3.3-7.5-2.6-9-2.3C72.9,71.8,73.9,70.2,74.9,68.7z M71.2,74.5
		c2.4,0.1,7.4,0.5,8.9,2.6c-0.7,1.4-1.5,2.9-2.2,4.4c-2.2-3.3-7.1-3-9.1-2.7C69.6,77.3,70.4,75.9,71.2,74.5z M68.1,80.1
		c2.8,0.2,7.8,0.7,9.1,2.9c-0.7,1.5-1.3,3-1.8,4.6c-2.7-3.6-8.4-2.2-10-1.8C66.3,83.9,67.2,82,68.1,80.1z M64.8,87.1
		c2.7-0.1,8.5-0.2,10,2.2c-0.6,1.7-1.1,3.3-1.6,5c-3.3-3-8.7-1.9-10.8-1.4C63.1,91.1,64,89.1,64.8,87.1z M61.8,94.6
		c3-0.1,8.6-0.1,10.9,1.9c-0.4,1.7-0.7,3.4-1,5c0,0,0,0,0-0.1c-5.3-3.7-12.6,1.9-13.1,2.3C59.5,100.9,60.6,97.8,61.8,94.6z
		 M58.1,105.6c2.4-1,10.3-4.3,13.4-2c-0.2,1.8-0.3,3.6-0.2,5.3c-7.2,1.2-13.3,5.1-15.6,6.7C56,113.5,56.8,110,58.1,105.6z
		 M38.6,135.8c3-11.1,10.7-15.1,16.9-18.3c10.3-6.6,12.4-5.8,15.8-6.9v0c6.3-3.4,50-4.6,61.1,25.3C97.1,135.3,38.6,135.8,38.6,135.8
		z"/>
</g>
</svg>
