<?xml version="1.0" encoding="utf-8"?>
<!-- Generator: Adobe Illustrator 19.2.1, SVG Export Plug-In . SVG Version: 6.00 Build 0)  -->
<svg version="1.1" id="Layer_2" xmlns="http://www.w3.org/2000/svg" xmlns:xlink="http://www.w3.org/1999/xlink" x="0px" y="0px"
	 viewBox="0 0 170.1 170.1" style="enable-background:new 0 0 170.1 170.1;" xml:space="preserve">
<style type="text/css">
	.st0{fill:#FAA431;}
	.st1{fill:#301F1D;}
	.st2{fill:#FFFFFF;}
</style>
<circle class="st0" cx="85" cy="85" r="82.2"/>
<circle class="st1" cx="85" cy="85" r="77.6"/>
<circle class="st2" cx="85" cy="85" r="76.1"/>
<g>
	<path class="st1" d="M128.8,45c-14.4-19.3-32.6-19-32.6-19v-8.2h-9.8h-9.8V26c0,0-18.2-0.3-32.6,19S26.9,94,26.9,98.5
		c10.2,0,15.4,0,15.4,0v38.3h44.1h44.1V98.5c0,0,5.2,0,15.4,0C145.9,94,143.2,64.4,128.8,45z"/>
	<rect x="43.6" y="98.8" class="st2" width="85.4" height="36.6"/>
	<rect x="76.5" y="115.3" class="st1" width="19.6" height="20.2"/>
	<rect x="77.5" y="116.5" class="st2" width="17.5" height="19"/>
	<rect x="78" y="18.7" class="st2" width="17" height="6.7"/>
	<g>
		<path class="st2" d="M109.6,30.9c-5.4-3-15-4.4-22.9-4.1c-7.4-0.3-18,0.5-22.6,3.8C80.7,46.2,107.9,34.9,109.6,30.9z"/>
		<path class="st2" d="M111.2,31.5c-25,18.5-46.6,1.8-48.7,0C31.1,46.4,28.4,97.1,28.4,97.1h58.4H144C144,97.1,142,46.9,111.2,31.5z
			"/>
	</g>
	<path class="st1" d="M120.7,37.3l-1,3.6l-4.6-2.2l-1.2,4.5l-4.1-2.8l-1.2,4.7l-4.1-2.9l-3,4.5l-3.4-3.3l-2.9,4.1l-3.5-3.5L89.2,48
		l-3-3.8L83.7,48l-3.1-3.9l-4.3,3.4l-2-4.1l-4.2,3.1l-2.3-4.2L64,45.2l-1.5-4.3l-3.8,2.9l-1.6-4.6l-5.3,2.1l-0.3-2.4
		c-0.2,0.2-0.4,0.4-0.6,0.6l-0.1,2.9l6-2.7l1.2,5.5l4.4-3.7l1.1,5.4l4.3-4.1l1.9,5.2l4.4-4.2l1.8,5.4l4.6-4.6l3.1,4.8l2.5-4.5
		l2.9,4.5l2.7-5.1l3.5,4.8l2.9-5.3l3.4,4.4l3-5.7l4.4,4l0.9-5.6l4.4,3.9l0.8-5.6l5.1,3.4l0.8-4.8C120.9,37.4,120.8,37.4,120.7,37.3z
		"/>
	<path class="st1" d="M128,44.8l-2.6-0.7l-1.3,5.1l-4.2-2l-1.3,4.8l-4.5-2.2l-1.1,4.5l-3.9-2.8l-1.2,4.7l-4-2.9l-2.9,4.5l-3.3-3.3
		l-2.8,4.1L91.5,55L89,59.1l-2.9-3.8l-2.4,3.8l-3-3.9l-4.1,3.4l-1.9-4.1l-4.1,3.1l-2.2-4.2l-3.7,2.9L63.1,52l-3.7,2.9l-1.5-4.6
		l-5.1,2.1l-0.6-4.5l-5,1.6l-0.7-4.8l-0.6,0.2c-0.1,0.2-0.1,0.3-0.2,0.5l0.6-0.3l0.1,5.7l5.7-2.5l-0.2,5.3l5.8-2.7l1.2,5.5l4.3-3.7
		l1.1,5.4l4.2-4.1l1.8,5.2l4.3-4.2l1.7,5.4l4.5-4.6l3,4.8l2.4-4.5l2.8,4.5l2.6-5.1l3.4,4.8l2.8-5.3l3.3,4.4l3-5.7l4.3,4l0.9-5.6
		l4.3,3.9l0.8-5.6l4.9,3.4l1-5.8l4.6,3l0.8-6.1l2.6,1.1C128.1,45.3,128.1,45.1,128,44.8z"/>
	<polygon class="st1" points="40.4,52.8 40.4,57.4 45.2,55.8 45.9,60.7 51.2,59.1 51.8,63.7 57.1,61.6 58.7,66.2 62.5,63.3 
		64.1,67.7 68,64.8 70.2,69 74.5,65.9 76.5,70 80.8,66.6 84,70.6 86.5,66.8 89.5,70.6 92.1,66.4 95.7,69.9 98.6,65.8 102,69.1 
		105,64.6 109.1,67.5 110.4,62.8 114.5,65.7 115.7,61.1 120.3,63.4 121.7,58.5 126.1,60.6 127.4,55.5 132.5,56.7 132.2,52.2 
		132.4,52.5 133.5,58.2 127.6,55.8 126.7,62 121.9,58.9 120.9,64.8 115.8,61.4 115,67.1 110.5,63.2 109.6,68.9 105.1,64.9 102,70.6 
		98.6,66.1 95.7,71.5 92.2,66.7 89.4,71.9 86.5,67.3 84,71.9 80.9,67.1 76.2,71.7 74.4,66.3 69.9,70.5 68,65.2 63.6,69.3 62.5,63.9 
		58.1,67.6 56.8,62.1 50.8,64.8 51,59.5 45.1,62 45,56.3 39.5,58.7 40.2,52.9 	"/>
</g>
</svg>
