<?xml version="1.0" encoding="utf-8"?>
<!-- Generator: Adobe Illustrator 19.2.1, SVG Export Plug-In . SVG Version: 6.00 Build 0)  -->
<svg version="1.1" id="Layer_1" xmlns="http://www.w3.org/2000/svg" xmlns:xlink="http://www.w3.org/1999/xlink" x="0px" y="0px"
	 viewBox="0 0 226.8 70.9" style="enable-background:new 0 0 226.8 70.9;" xml:space="preserve">
<style type="text/css">
	.st0{fill:#FFFFFF;}
	.st1{fill:#FBA931;}
</style>
<g>
	<g>
		<path class="st0" d="M2.1,70.5V42.4h5.1v24.6H14v3.5H2.1z"/>
		<path class="st0" d="M16.7,70.5V42.4h11.8V46h-6.6V54H27v3.6h-5.3v9.3h6.7v3.5H16.7z"/>
		<path class="st0" d="M38.5,70.8c-2.7,0-4.6-0.8-5.7-2.5c-1.2-1.7-1.8-4.1-1.8-7.3v-9.2c0-1.6,0.1-3,0.4-4.2s0.7-2.2,1.3-3.1
			c0.6-0.9,1.4-1.5,2.5-2c1.1-0.4,2.3-0.7,3.9-0.7c2.8,0,4.8,0.7,6,2c1.2,1.4,1.8,3.4,1.8,6.2v1.4h-4.9v-1.5c0-0.6,0-1.1,0-1.5
			s-0.1-0.8-0.2-1.2c-0.1-0.4-0.3-0.7-0.5-0.9c-0.2-0.2-0.5-0.4-0.8-0.5c-0.4-0.1-0.8-0.2-1.3-0.2c-0.4,0-0.7,0-1,0.1
			s-0.6,0.2-0.8,0.4c-0.2,0.1-0.4,0.3-0.5,0.6c-0.1,0.3-0.2,0.5-0.3,0.8c-0.1,0.2-0.1,0.6-0.2,0.9c0,0.4-0.1,0.7-0.1,1s0,0.7,0,1.1
			v11.3c0,1.7,0.2,2.9,0.6,3.7c0.4,0.8,1.2,1.2,2.4,1.2c0.6,0,1.1-0.1,1.5-0.3c0.4-0.2,0.7-0.6,1-1.1c0.2-0.5,0.4-1,0.5-1.6
			c0.1-0.6,0.1-1.3,0.1-2.2v-2.3h-3v-3.3H47v14.3h-3.3l-0.4-2.8C42.4,69.8,40.8,70.8,38.5,70.8z"/>
		<path class="st0" d="M50.8,70.5V42.4h11.8V46h-6.6V54h5.3v3.6h-5.3v9.3h6.7v3.5H50.8z"/>
		<path class="st0" d="M65.6,70.5V42.4h3.5L76,58.3V42.4h4.2v28.1h-3.4l-7-16.7v16.7H65.6z"/>
		<path class="st0" d="M84.5,70.5V42.4H91c1.7,0,3.1,0.2,4.3,0.5s2.1,0.9,2.7,1.6c0.7,0.7,1.2,1.6,1.5,2.7c0.3,1.1,0.4,2.4,0.4,3.9
			v10.1c0,1.6-0.1,3-0.4,4.1c-0.3,1.1-0.8,2.1-1.4,2.8c-0.7,0.8-1.6,1.4-2.7,1.7s-2.5,0.6-4.1,0.6H84.5z M89.6,66.9h1.5
			c0.5,0,1,0,1.3-0.1c0.4-0.1,0.7-0.2,1-0.3c0.3-0.1,0.5-0.3,0.7-0.6c0.2-0.3,0.3-0.5,0.4-0.8s0.2-0.6,0.2-1.1
			c0-0.5,0.1-0.9,0.1-1.2c0-0.3,0-0.8,0-1.5V50.9c0-0.7,0-1.2,0-1.6c0-0.4-0.1-0.8-0.2-1.2c-0.1-0.4-0.2-0.7-0.4-1
			c-0.2-0.2-0.4-0.4-0.7-0.6c-0.3-0.2-0.6-0.3-1-0.4C92.1,46.1,91.6,46,91,46h-1.4V66.9z"/>
		<path class="st0" d="M101.8,70.5l5.7-28.1h5.3l5.7,28.1h-4.8l-1.1-6.5h-4.9l-1.2,6.5H101.8z M108.4,60.6h3.8l-1.9-11.5L108.4,60.6
			z"/>
		<path class="st0" d="M132.6,70.5V46.1h-4.7v-3.8h14.4v3.8h-4.6v24.3H132.6z"/>
		<path class="st0" d="M144.5,70.5V42.4h6.4c1.5,0,2.8,0.1,3.8,0.4s2,0.7,2.8,1.2c0.8,0.6,1.4,1.3,1.8,2.3c0.4,1,0.6,2.2,0.6,3.6
			c0,1.8-0.3,3.2-0.8,4.3c-0.5,1.1-1.4,1.9-2.6,2.4l3.9,13.9h-5.1l-3.4-12.8h-2.3v12.8H144.5z M149.6,54.4h1.2c1.5,0,2.6-0.3,3.2-1
			s1-1.7,1-3.3c0-1.5-0.3-2.6-0.8-3.2c-0.6-0.6-1.6-1-3.1-1h-1.5V54.4z"/>
		<path class="st0" d="M162.3,70.5l5.7-28.1h5.3l5.7,28.1h-4.8l-1.1-6.5h-4.9l-1.2,6.5H162.3z M168.8,60.6h3.8l-1.9-11.5L168.8,60.6
			z"/>
		<path class="st0" d="M185.2,70.5l-5.7-28.1h4.5l3.7,19.6l3.5-19.6h4.6l-5.7,28.1H185.2z"/>
		<path class="st0" d="M198.8,70.5V42.4h11.8V46h-6.6V54h5.3v3.6h-5.3v9.3h6.7v3.5H198.8z"/>
		<path class="st0" d="M213.6,70.5V42.4h5.1v24.6h6.7v3.5H213.6z"/>
	</g>
	<g>
		<path class="st1" d="M120.2,1.1c-21.8,0-39.5,17.7-39.5,39.5H85c0-19.4,15.7-35.1,35.1-35.1c19.4,0,35.1,15.7,35.1,35.1h4.4
			C159.7,18.8,142,1.1,120.2,1.1z"/>
		<path class="st1" d="M120.2,9.9c-17,0-30.8,13.8-30.8,30.8h4.4c0-14.6,11.8-26.4,26.4-26.4s26.4,11.8,26.4,26.4h4.4
			C150.9,23.7,137.2,9.9,120.2,9.9z"/>
		<path class="st1" d="M120.2,18.7c-12.1,0-22,9.8-22,22h4.4c0-9.7,7.9-17.6,17.6-17.6s17.6,7.9,17.6,17.6h4.4
			C142.1,28.5,132.3,18.7,120.2,18.7z"/>
		<path class="st1" d="M120.2,27.5c-7.3,0-13.2,5.9-13.2,13.2h4.4c0-4.9,3.9-8.8,8.8-8.8c4.9,0,8.8,3.9,8.8,8.8h4.4
			C133.4,33.4,127.5,27.5,120.2,27.5z"/>
		<path class="st1" d="M115.8,40.7c0-2.4,2-4.4,4.4-4.4c2.4,0,4.4,2,4.4,4.4"/>
	</g>
</g>
</svg>
